<?xml version="1.0" encoding="UTF-8" standalone="no"?>
<!DOCTYPE svg PUBLIC "-//W3C//DTD SVG 1.1//EN" "http://www.w3.org/Graphics/SVG/1.1/DTD/svg11.dtd">
<svg width="100%" height="100%" viewBox="0 0 406 81" version="1.1" xmlns="http://www.w3.org/2000/svg" xmlns:xlink="http://www.w3.org/1999/xlink" xml:space="preserve" xmlns:serif="http://www.serif.com/" style="fill-rule:evenodd;clip-rule:evenodd;stroke-linejoin:round;stroke-miterlimit:2;">
    <g transform="matrix(1,0,0,1,-53,-3233)">
        <g transform="matrix(1,0,0,7.55859,0,0)">
            <g id="nu-caffe-white" serif:id="nu caffe white" transform="matrix(0.375926,0,0,0.0497349,52.9998,427.829)">
                <g transform="matrix(1,0,0,1,233.463,202.857)">
                    <path d="M0,-154.771L36.886,-154.771C37.097,-150.638 37.444,-146.616 37.485,-142.59C37.781,-113.472 38.109,-84.354 38.241,-55.235C38.382,-24.211 16.566,-0.144 -14.518,3.447C-25.711,4.739 -36.811,4.726 -47.826,2.235C-68.799,-2.508 -83.601,-14.698 -92.064,-34.452C-92.905,-36.413 -93.683,-38.4 -95.457,-40.31L-95.457,4.431L-131.373,4.431C-132.93,2.478 -132.193,0.037 -132.204,-2.219C-132.339,-30.363 -132.347,-58.507 -132.542,-86.65C-132.571,-90.924 -133.077,-95.251 -133.892,-99.452C-136.796,-114.419 -144.144,-121.692 -157.454,-123.172C-172.575,-124.854 -184.135,-118.684 -190.113,-105.608C-193.664,-97.843 -195.131,-89.63 -195.082,-81.11C-194.929,-54.915 -194.813,-28.721 -194.686,-2.527C-194.675,-0.196 -194.685,2.135 -194.685,5.094L-233.462,5.094L-233.462,-153.003L-197.117,-153.003L-197.117,-133.918C-180.807,-153.29 -161.316,-159.865 -138.697,-157.003C-114.221,-153.905 -102.359,-137.729 -96.029,-115.33L-96.029,-153.874L-57.842,-153.874C-57.842,-145.732 -57.886,-137.6 -57.834,-129.469C-57.687,-106.605 -57.635,-83.738 -57.292,-60.876C-56.964,-38.962 -38.551,-25.116 -18.617,-31.536C-7.275,-35.189 0.83,-47.75 0.754,-62.194C0.604,-90.531 0.261,-118.867 0.003,-147.204C-0.018,-149.506 0,-151.808 0,-154.771" style="fill:#fff;fill-rule:nonzero;"/>
                </g>
                <g transform="matrix(1,0,0,1,594.864,96.6103)">
                    <path d="M0,80.376C-23.843,80.403 -42.057,60.648 -42.019,34.803C-41.981,8.683 -24.145,-10.196 0.377,-10.073C24.454,-9.953 42.126,9.07 42.142,34.883C42.158,60.696 23.952,80.349 0,80.376M42.174,-20.645C37.214,-27.088 33.219,-31.329 28.438,-34.781C8.779,-48.979 -24.414,-49.078 -47.421,-34.965C-84.367,-12.302 -95.302,42.549 -70.985,81.44C-46.222,121.043 16.665,129.454 40.934,90.57C41.061,90.367 41.629,90.438 42.954,90.231L42.954,111.628L83.856,111.628L83.856,-41.196L42.174,-41.196L42.174,-20.645Z" style="fill:#fff;fill-rule:nonzero;"/>
                </g>
                <g transform="matrix(1,0,0,1,1023.88,147.096)">
                    <path d="M0,-30.589L-67.65,-30.589C-65.71,-51.378 -48.848,-64.992 -28.234,-62.825C-12.507,-61.171 1.539,-45.35 0,-30.589M11.067,-83.059C-15.385,-100.86 -44.254,-100.923 -72.002,-86.069C-101.729,-70.155 -111.956,-42.933 -110.559,-10.71C-109.267,19.082 -97.635,43.62 -69.525,56.64C-39.958,70.334 -10.471,69.105 16.723,49.594C27.551,41.824 34.802,31.108 38.907,17.981C32.888,15.983 27.518,14.214 22.157,12.417C16.653,10.573 11.159,8.703 5.764,6.879C-6.836,28.576 -23.459,35.908 -43.454,28.914C-57.567,23.977 -69.388,6.733 -67.412,-6.687L40.385,-6.687C40.791,-7.715 41.143,-8.233 41.189,-8.776C43.74,-38.622 37.173,-65.491 11.067,-83.059" style="fill:#fff;fill-rule:nonzero;"/>
                </g>
                <g transform="matrix(1,0,0,1,764.909,170.631)">
                    <path d="M0,-133.554C9.653,-144.971 22.705,-139.416 34.739,-139.36L34.739,-167.775C22.017,-170.537 9.62,-171.225 -2.966,-169.668C-26.653,-166.737 -41.721,-152.199 -45.307,-128.637C-45.943,-124.46 -44.755,-120.091 -46.73,-115.416L-66.024,-115.416L-66.024,-83.83L-45.435,-83.83L-45.435,37.671L-3.655,37.671L-3.655,-84.191L34.753,-84.191L34.753,-115.656L-3.328,-115.656C-4.031,-122.439 -4.147,-128.649 0,-133.554" style="fill:#fff;fill-rule:nonzero;"/>
                </g>
                <g transform="matrix(1,0,0,1,874.875,169.942)">
                    <path d="M0,-132.364C9.437,-144.411 22.792,-138.749 34.878,-138.702L34.878,-167.15C23.69,-169.647 12.777,-170.567 1.825,-169.51C-24.507,-166.968 -39.658,-154.349 -44.277,-131.181C-45.293,-126.087 -45.278,-120.79 -45.809,-114.788L-65.779,-114.788L-65.779,-83.269L-45.126,-83.269L-45.126,38.203L-3.367,38.203L-3.367,-83.41L34.954,-83.41L34.954,-114.921L-2.841,-114.921C-4.097,-121.609 -3.716,-127.62 0,-132.364" style="fill:#fff;fill-rule:nonzero;"/>
                </g>
                <g transform="matrix(1,0,0,1,430.165,103.455)">
                    <path d="M0,52.119C-10.132,36.991 -9.252,13.271 2.194,-0.36C21.899,-23.826 46.236,-18.886 71.125,-9.505L71.125,-45.183C39.958,-61.493 -9.299,-50.095 -31.793,-21.649C-54.436,6.985 -53.34,52.322 -30.005,79.998C-2.29,112.871 49.51,113.612 71.244,102.1L71.244,67.395C44.378,75.604 18.393,79.581 0,52.119" style="fill:#fff;fill-rule:nonzero;"/>
                </g>
                <g transform="matrix(1,0,0,1,319.772,108.816)">
                    <path d="M0,31.054C-2.774,31.054 -5.065,31.012 -7.209,30.922C-16.095,30.55 -22.223,24.114 -22.112,15.27C-22.005,6.636 -15.457,0.279 -6.543,0.154C0.722,0.052 7.844,0 14.624,0C19.781,0 24.903,0.03 29.846,0.089C38.517,0.192 45.255,6.944 45.187,15.462C45.117,23.995 38.493,30.589 29.778,30.8C27.704,30.849 25.489,30.873 22.809,30.873C20.936,30.873 19.063,30.862 17.19,30.85C15.418,30.84 13.645,30.829 11.872,30.828C11.79,30.916 11.688,30.974 11.579,30.974C9.651,30.974 7.723,30.994 5.795,31.014C3.863,31.034 1.931,31.054 0,31.054" style="fill:#df2127;fill-rule:nonzero;"/>
                </g>
                <g transform="matrix(1,0,0,1,334.404,140.37)">
                    <path d="M0,-32.054C-6.784,-32.054 -13.912,-32.002 -21.183,-31.901C-30.379,-31.772 -37.134,-25.207 -37.245,-16.29C-37.36,-7.161 -31.034,-0.517 -21.863,-0.132C-19.714,-0.042 -17.418,0 -14.638,0C-12.705,0 -10.77,-0.02 -8.836,-0.04C-6.908,-0.06 -4.981,-0.08 -3.054,-0.08C-2.869,-0.08 -2.69,-0.132 -2.535,-0.226C-0.839,-0.224 0.857,-0.214 2.553,-0.204C4.427,-0.193 6.3,-0.181 8.173,-0.181C10.859,-0.181 13.079,-0.205 15.158,-0.255C24.148,-0.472 30.982,-7.279 31.053,-16.088C31.124,-24.885 24.169,-31.859 15.219,-31.966C10.278,-32.024 5.157,-32.054 0,-32.054M0,-31.054C5.07,-31.054 10.138,-31.026 15.207,-30.966C23.724,-30.865 30.119,-24.261 30.053,-16.096C29.986,-7.838 23.674,-1.461 15.134,-1.255C12.815,-1.199 10.494,-1.181 8.173,-1.181C4.431,-1.181 0.688,-1.226 -3.054,-1.226L-3.054,-1.08C-6.914,-1.08 -10.778,-1 -14.638,-1C-17.035,-1 -19.429,-1.031 -21.821,-1.131C-30.532,-1.497 -36.352,-7.788 -36.246,-16.277C-36.143,-24.503 -29.848,-30.779 -21.169,-30.901C-14.114,-30.999 -7.056,-31.054 0,-31.054" style="fill:#fff;fill-rule:nonzero;"/>
                </g>
                <g transform="matrix(1,0,0,1,1063.13,42.9697)">
                    <path d="M0,-1.755L3.287,-1.755C4.422,-1.755 5.273,-2.028 5.842,-2.574C6.408,-3.12 6.693,-3.86 6.693,-4.796C6.693,-5.757 6.408,-6.505 5.842,-7.038C5.273,-7.57 4.422,-7.837 3.287,-7.837L0,-7.837L0,-1.755ZM8.554,-1.54C7.814,-0.591 6.679,0.026 5.148,0.312L9.94,7.68L6.376,7.68L1.861,0.467L0,0.467L0,7.68L-2.931,7.68L-2.931,-10.099L3.287,-10.099C5.346,-10.099 6.923,-9.598 8.02,-8.598C9.115,-7.597 9.663,-6.329 9.663,-4.796C9.663,-3.574 9.293,-2.489 8.554,-1.54M9.228,9.747C11.049,8.733 12.448,7.31 13.426,5.478C14.402,3.645 14.891,1.52 14.891,-0.897C14.891,-3.34 14.402,-5.479 13.426,-7.311C12.448,-9.143 11.049,-10.553 9.228,-11.541C7.405,-12.529 5.267,-13.023 2.811,-13.023C0.356,-13.023 -1.789,-12.529 -3.624,-11.541C-5.459,-10.553 -6.865,-9.143 -7.842,-7.311C-8.82,-5.479 -9.308,-3.34 -9.308,-0.897C-9.308,1.52 -8.82,3.645 -7.842,5.478C-6.865,7.31 -5.459,8.733 -3.624,9.747C-1.789,10.761 0.356,11.267 2.811,11.267C5.267,11.267 7.405,10.761 9.228,9.747M10.138,-13.003C12.277,-11.82 13.933,-10.177 15.109,-8.071C16.283,-5.966 16.871,-3.574 16.871,-0.897C16.871,1.807 16.277,4.21 15.089,6.316C13.901,8.421 12.244,10.066 10.119,11.248C7.993,12.431 5.557,13.022 2.811,13.022C0.039,13.022 -2.41,12.431 -4.535,11.248C-6.661,10.066 -8.318,8.421 -9.506,6.316C-10.694,4.21 -11.288,1.807 -11.288,-0.897C-11.288,-3.6 -10.694,-5.998 -9.506,-8.09C-8.318,-10.183 -6.661,-11.82 -4.535,-13.003C-2.41,-14.186 0.039,-14.777 2.811,-14.777C5.557,-14.777 8,-14.186 10.138,-13.003" style="fill:#fff;fill-rule:nonzero;"/>
                </g>
            </g>
        </g>
    </g>
</svg>
